<?xml version="1.0" standalone="no"?>
<!DOCTYPE svg PUBLIC "-//W3C//DTD SVG 20010904//EN"
 "http://www.w3.org/TR/2001/REC-SVG-20010904/DTD/svg10.dtd">
<svg version="1.0" xmlns="http://www.w3.org/2000/svg"
 width="1216.000000pt" height="1216.000000pt" viewBox="0 0 1216.000000 1216.000000"
 preserveAspectRatio="xMidYMid meet">
<metadata>
Created by potrace 1.14, written by Peter Selinger 2001-2017
</metadata>
<g transform="translate(0.000000,1216.000000) scale(0.100000,-0.100000)"
fill="#000000" stroke="none">
<path d="M1674 8681 c-10 -61 -12 -63 -90 -51 -92 13 -101 13 -108 -5 -3 -8
-15 -88 -26 -178 -11 -89 -34 -259 -50 -377 -16 -118 -36 -280 -45 -360 -9
-80 -23 -167 -30 -195 -13 -46 -15 -138 -3 -150 2 -3 52 2 109 10 57 8 106 15
109 15 6 0 -10 -259 -17 -280 -4 -11 -8 -8 -13 10 -5 14 -8 19 -9 12 -1 -7 -5
-11 -10 -7 -6 3 -14 -3 -20 -13 -7 -14 -31 -22 -94 -31 l-84 -13 -7 -101 c-4
-56 -9 -193 -13 -303 l-6 -202 119 -1 c65 -1 120 -4 124 -7 3 -3 5 -47 6 -98
l1 -92 -31 0 c-17 0 -75 -4 -128 -8 l-98 -8 0 -99 0 -99 119 0 119 0 6 -25 c4
-14 4 -30 1 -35 -4 -6 -53 -10 -110 -10 -112 0 -135 -5 -135 -26 0 -17 -5 -16
138 -14 l112 1 0 -35 0 -36 -110 0 c-78 0 -110 3 -110 12 0 6 -7 3 -15 -8 -17
-22 -20 -87 -5 -114 7 -13 6 -19 -5 -24 -20 -7 -20 -65 0 -72 15 -6 12 -49 -6
-68 -5 -6 -9 -74 -9 -152 0 -198 0 -199 -71 -235 -63 -31 -70 -45 -47 -94 6
-14 17 -25 25 -25 8 0 56 -5 108 -11 92 -10 96 -9 137 14 l43 25 255 -38 c428
-64 773 -110 819 -110 43 0 43 0 38 30 l-6 30 59 0 c87 0 110 -12 110 -55 l0
-35 -187 0 c-324 -1 -532 -18 -666 -55 -126 -34 -182 -60 -257 -115 -30 -22
-62 -43 -71 -46 -9 -3 -25 -22 -36 -42 l-19 -37 25 -21 c29 -24 57 -32 133
-39 29 -3 62 -7 73 -10 11 -2 128 -6 260 -10 457 -10 611 -16 780 -27 188 -14
978 -15 1065 -3 30 5 1110 10 2400 13 1872 3 2409 1 2660 -9 433 -19 947 -17
1170 4 242 24 267 26 335 32 126 11 231 28 257 41 15 8 31 14 35 14 5 0 16 7
26 15 16 14 16 19 5 32 -9 12 -10 15 0 9 6 -4 12 -3 12 2 0 11 -39 46 -68 61
-12 7 -20 16 -17 21 3 6 -1 7 -9 4 -9 -3 -16 -1 -16 6 0 6 -5 8 -10 5 -6 -3
-13 1 -16 9 -3 9 -9 14 -14 11 -4 -2 -25 5 -46 16 -21 11 -57 24 -79 30 -132
34 -208 49 -272 55 -40 4 -73 9 -73 11 0 2 4 23 9 46 6 23 12 54 15 68 5 23
13 28 51 34 41 6 52 3 95 -25 l48 -31 162 16 c89 8 170 20 181 26 11 5 24 7
29 4 6 -3 10 -2 10 3 0 5 10 14 23 19 12 6 55 41 94 78 56 51 72 71 69 88 -3
12 -5 34 -5 50 -1 16 -7 27 -15 27 -25 0 -28 18 -7 47 10 16 21 46 24 68 3 22
3 34 0 26 -4 -9 -10 -2 -18 20 -9 28 -9 37 3 51 8 10 20 15 26 11 6 -3 8 -3 4
2 -4 4 -4 13 1 19 4 6 11 26 14 44 6 30 5 32 -22 32 -15 0 -35 8 -43 18 -25
28 -56 95 -63 137 -10 57 -30 84 -80 105 -23 10 -46 23 -49 28 -3 6 -25 25
-49 42 -33 25 -29 19 17 -24 l60 -57 -22 -22 c-12 -12 -22 -19 -22 -15 0 4 7
13 15 21 13 13 7 23 -53 83 -37 37 -59 61 -49 54 37 -27 14 5 -58 82 -86 92
-104 118 -80 118 9 0 25 -5 36 -10 14 -8 27 -7 49 5 40 21 38 34 -10 52 -33
13 -39 20 -34 36 5 15 3 18 -7 12 -8 -5 -5 2 6 15 l20 23 -20 -7 c-11 -4 -24
-9 -30 -10 -30 -6 -55 -18 -55 -26 0 -5 9 -7 20 -5 22 4 33 -9 35 -42 1 -30
-10 -29 -31 2 -9 14 -23 25 -30 25 -22 0 -16 28 9 42 18 10 151 40 152 35 0
-1 15 -21 33 -44 18 -24 46 -71 63 -105 17 -35 29 -53 26 -40 -4 17 0 23 19
28 24 6 24 6 -8 23 -32 16 -33 17 -33 84 0 39 -4 67 -10 67 -6 0 -26 13 -45
29 -61 50 -563 287 -582 275 -14 -9 -192 48 -402 129 -104 40 -108 42 -70 45
22 2 51 -1 64 -6 16 -6 41 -5 71 3 58 15 69 22 69 40 0 20 -118 54 -147 44
-14 -5 -23 -5 -23 1 0 6 5 10 10 10 6 0 10 5 10 12 0 9 -3 9 -12 0 -19 -19
-46 -14 -82 13 -18 14 -37 25 -41 25 -4 0 -40 33 -79 73 -39 41 -62 62 -51 48
14 -19 9 -16 -18 8 -21 20 -32 38 -27 41 6 4 1 14 -12 26 -22 19 -23 19 -8 -1
14 -18 14 -19 -2 -6 -10 7 -16 17 -13 21 6 10 -70 82 -79 73 -4 -5 -6 -1 -4 7
1 8 -3 14 -11 15 -8 0 -15 9 -17 19 -1 10 -78 96 -171 190 -92 94 -241 246
-331 339 -89 92 -166 167 -171 167 -12 0 -7 -36 9 -54 7 -9 10 -19 7 -22 -9
-10 -60 22 -158 99 -148 115 -347 251 -426 291 -40 20 -121 49 -180 66 -189
53 -211 60 -223 76 -20 23 -129 80 -200 104 -92 31 -194 39 -550 41 l-315 2
-304 -52 c-168 -28 -315 -51 -327 -51 -12 0 -27 6 -33 13 -9 11 32 21 227 53
l237 39 -972 3 -973 2 -1 23 c0 19 -1 20 -8 3 -7 -18 -50 -18 -1290 -20
l-1282 -1 6 48 c8 56 -2 64 -11 8z m3856 -206 c7 -8 9 -15 4 -15 -5 0 -130
-20 -279 -44 -364 -60 -361 -60 -382 -48 -25 15 -25 15 232 58 440 74 408 70
425 49z m1320 -249 c0 -12 -83 -545 -110 -706 -7 -44 -16 -61 -44 -86 l-36
-31 19 -39 c10 -21 21 -53 24 -71 5 -27 -25 -260 -50 -388 l-8 -40 -130 -21
c-72 -12 -152 -24 -178 -28 l-48 -7 6 81 c3 45 15 145 25 223 21 145 19 160
-19 170 -17 4 -21 -9 -40 -137 -19 -122 -60 -348 -64 -352 -1 -1 -77 -14 -169
-28 -91 -14 -170 -27 -175 -28 -4 -1 33 -5 82 -8 76 -5 63 -7 -83 -8 -137 -2
-188 -6 -240 -21 -37 -11 -132 -29 -212 -41 -80 -12 -183 -28 -229 -36 -105
-18 -104 -18 -92 3 5 10 17 18 27 18 9 0 18 6 20 13 1 7 0 8 -3 2 -8 -16 -23
-12 -24 8 0 14 -2 14 -9 -3 -8 -20 -11 -18 -14 8 0 6 -14 13 -31 15 -21 2 -26
0 -16 -7 8 -5 19 -7 25 -5 6 2 12 -7 12 -21 1 -16 -5 -26 -17 -30 -10 -4 -19
-11 -19 -16 0 -5 -9 -9 -20 -9 -17 0 -19 2 -8 14 7 8 15 12 18 11 3 -2 12 0
20 5 12 7 12 12 2 22 -9 9 -12 9 -12 -1 0 -11 -3 -11 -17 0 -11 10 -14 10 -9
2 4 -7 4 -13 -1 -14 -66 -7 -73 -6 -73 6 0 7 6 16 13 18 7 3 4 6 -7 6 -14 1
-17 6 -12 25 6 23 3 24 -51 28 -36 2 -62 -2 -72 -10 -9 -8 -10 -11 -3 -7 27
14 -4 -72 -35 -96 -16 -13 -17 -12 -5 3 8 9 11 26 8 36 -5 13 -1 22 10 26 9 4
14 9 11 12 -3 4 -20 -4 -36 -16 -17 -11 -57 -27 -89 -33 -44 -9 -58 -16 -55
-27 4 -13 3 -13 -6 0 -8 12 -50 8 -303 -32 -161 -26 -294 -45 -296 -43 -3 2 1
49 8 105 l13 100 94 0 93 0 0 50 0 50 -85 0 c-50 0 -85 4 -85 10 0 14 63 449
104 724 20 126 39 232 43 236 9 9 362 65 367 59 4 -4 1 -29 -90 -628 -30 -199
-53 -365 -50 -368 2 -3 18 -2 34 2 28 6 29 9 41 93 36 265 134 908 140 913 9
10 359 64 366 57 3 -3 -8 -99 -25 -214 -46 -313 -139 -925 -146 -956 -6 -28
-5 -28 49 -28 65 0 56 -25 88 230 12 96 25 178 28 182 4 4 58 16 120 26 l113
18 -55 36 c-60 40 -98 84 -122 141 -13 31 -13 52 -4 134 18 168 57 362 78 397
30 48 86 74 197 91 55 9 176 29 269 45 243 42 334 54 341 47 7 -6 -49 -427
-70 -532 l-12 -60 -128 -20 -129 -20 37 -17 c46 -22 123 -93 143 -132 31 -60
32 -82 8 -238 -29 -186 -48 -272 -69 -303 -9 -13 -16 -27 -16 -30 0 -3 33 -5
74 -5 l74 0 7 68 c10 106 61 466 122 852 30 195 57 364 58 375 2 11 4 34 4 50
1 28 5 31 54 42 93 22 317 56 323 50 3 -3 1 -36 -5 -74 -7 -37 -14 -84 -16
-103 -3 -19 -15 -104 -27 -187 -12 -84 -19 -155 -16 -159 10 -9 45 13 53 33 8
22 53 288 66 396 5 44 14 87 19 96 7 14 42 23 157 40 81 13 153 24 158 26 26
9 55 4 55 -9z m545 -576 c38 -334 38 -337 26 -320 -9 13 -11 12 -11 -4 0 -13
-3 -17 -10 -10 -23 23 -53 391 -42 516 7 88 5 97 37 -182z m-5808 218 c-3 -8
-6 -5 -6 6 -1 11 2 17 5 13 3 -3 4 -12 1 -19z m343 3 c0 -5 -7 -28 -16 -52
-15 -43 -55 -237 -69 -333 l-7 -49 34 6 c113 21 121 21 115 1 -3 -10 -13 -73
-23 -139 -9 -66 -18 -123 -20 -126 -2 -3 -34 -11 -73 -18 l-69 -12 -6 -42
c-18 -134 -37 -339 -32 -352 4 -12 36 -15 168 -18 l163 -3 -168 -2 c-208 -3
-195 -18 -173 205 23 232 28 212 -46 200 -44 -6 -63 -6 -66 2 -2 6 -8 11 -14
11 -6 0 -8 -7 -4 -15 4 -11 -1 -15 -19 -15 -14 0 -25 6 -25 13 -1 7 -6 5 -14
-5 -21 -29 -26 -21 -21 30 2 26 7 90 10 143 l7 96 121 17 c67 9 122 18 123 19
1 1 14 67 28 147 35 194 66 300 86 300 5 0 10 -4 10 -9z m2136 -118 c-5 -30
-89 -578 -113 -739 l-5 -31 -166 -27 c-92 -14 -173 -26 -180 -26 -17 0 -11
101 16 293 l18 127 -31 0 -32 0 -16 -102 c-9 -57 -26 -172 -38 -255 l-23 -153
-183 0 c-101 0 -183 2 -183 5 0 13 102 703 107 722 8 36 77 91 135 107 47 14
634 113 681 115 16 1 18 -4 13 -36z m3381 -10 c-3 -10 -5 -4 -5 12 0 17 2 24
5 18 2 -7 2 -21 0 -30z m-4727 -20 c0 -10 -4 -45 -10 -77 -5 -33 -8 -62 -5
-64 2 -3 99 10 215 28 115 19 212 32 214 29 5 -4 -32 -271 -50 -364 l-6 -31
-216 -34 c-119 -18 -218 -34 -219 -35 -3 -1 -53 -313 -53 -327 0 -5 -82 -8
-183 -8 l-184 0 18 123 c26 171 31 156 -48 142 -38 -7 -85 -15 -106 -18 l-38
-6 7 52 c18 161 35 271 44 287 23 42 70 69 144 81 83 14 80 10 92 112 4 32 12
61 18 65 10 6 307 59 349 61 10 1 17 -6 17 -16z m5721 0 c13 -16 12 -17 -3 -4
-10 7 -18 15 -18 17 0 8 8 3 21 -13z m-893 -53 c48 -7 110 -16 137 -20 28 -5
95 -14 150 -20 55 -6 114 -13 130 -17 17 -4 33 -6 36 -5 4 0 12 -40 18 -91 18
-136 22 -157 31 -152 5 3 10 0 12 -7 3 -9 10 -8 23 5 16 16 17 30 11 124 l-7
105 43 -5 c24 -3 59 -9 78 -13 29 -5 33 -4 23 7 -7 7 -13 17 -13 22 0 16 110
-107 115 -128 13 -58 75 -543 75 -593 0 -18 -3 -20 -17 -13 -10 6 -65 19 -122
30 -74 14 -109 26 -123 40 -10 12 -27 21 -38 21 -10 0 -21 6 -23 13 -3 6 -6 0
-6 -15 -1 -16 -4 -28 -8 -28 -4 0 -93 16 -198 35 -104 19 -203 36 -220 38 -49
7 -61 16 -88 65 -44 84 -77 231 -102 459 -14 136 -18 208 -8 172 3 -12 26 -20
91 -29z m1097 -157 c9 -19 20 -31 25 -28 4 3 44 -34 88 -81 l79 -87 17 -144
c18 -154 25 -183 41 -180 5 1 14 -11 19 -26 8 -22 7 -30 -4 -37 -9 -6 -17 -5
-22 3 -5 7 -5 -34 -2 -90 5 -67 3 -103 -3 -103 -38 0 -342 64 -360 76 -15 9
-23 24 -23 42 0 26 -12 93 -43 237 -8 39 -18 118 -22 178 -6 96 -5 106 9 101
9 -3 16 -10 16 -15 0 -5 8 -9 18 -9 10 0 23 -5 30 -12 7 -7 12 -8 12 -4 0 5
-20 33 -45 62 -25 28 -45 58 -45 66 0 10 2 10 10 -2 5 -8 20 -15 33 -15 27 -2
113 -40 140 -63 35 -31 15 2 -45 72 -35 40 -74 86 -87 102 -13 16 -37 45 -54
64 -16 19 62 -58 175 -172 189 -192 252 -249 198 -180 -12 15 -76 88 -143 162
-66 74 -112 127 -100 117 11 -10 35 -22 52 -27 30 -8 32 -8 20 8 -7 9 -45 51
-83 92 l-71 75 77 -75 c43 -41 85 -89 93 -107z m-1378 25 c-2 -18 -4 -6 -4 27
0 33 2 48 4 33 2 -15 2 -42 0 -60z m-5710 15 c-3 -10 -5 -4 -5 12 0 17 2 24 5
18 2 -7 2 -21 0 -30z m7238 -53 c25 0 43 -14 106 -81 57 -61 76 -88 77 -110 1
-53 -32 -34 -135 79 -54 59 -105 116 -113 127 -15 19 -14 19 10 2 13 -9 38
-17 55 -17z m-7248 -72 c-2 -13 -4 -5 -4 17 -1 22 1 32 4 23 2 -10 2 -28 0
-40z m6840 -60 c-3 -7 -5 -2 -5 12 0 14 2 19 5 13 2 -7 2 -19 0 -25z m31 -238
c0 -35 -4 -25 -14 40 -7 47 -12 105 -12 130 0 35 4 25 14 -40 7 -47 12 -105
12 -130z m-1141 163 c-3 -10 -5 -4 -5 12 0 17 2 24 5 18 2 -7 2 -21 0 -30z
m1724 10 c13 -16 12 -17 -3 -4 -10 7 -18 15 -18 17 0 8 8 3 21 -13z m-6 -43
c-28 -12 -45 -12 -45 0 0 6 15 10 33 9 27 0 29 -2 12 -9z m76 -122 c-3 -94 -5
-105 -12 -68 -10 57 -11 165 -2 173 16 16 18 1 14 -105z m286 -172 c62 -60
111 -113 110 -119 -1 -5 30 -23 68 -39 291 -124 575 -257 833 -392 100 -52
102 -54 70 -60 -18 -3 -50 -15 -70 -26 -35 -19 -37 -19 -86 -1 -102 38 -167
78 -256 159 -99 92 -173 138 -411 262 -120 62 -175 97 -220 140 -33 31 -112
105 -175 164 -63 60 -118 116 -122 125 -19 46 -1 38 70 -30 42 -41 127 -124
189 -183z m-930 82 c-3 -7 -5 -2 -5 12 0 14 2 19 5 13 2 -7 2 -19 0 -25z
m-5391 -116 c-2 -10 -7 -34 -11 -54 l-6 -38 -179 0 -180 0 0 25 c0 14 6 28 13
30 23 9 352 61 360 57 4 -2 6 -11 3 -20z m5039 -42 c181 -33 333 -60 338 -60
4 0 5 -5 2 -10 -4 -6 -10 -8 -15 -5 -16 10 -216 46 -233 41 -9 -2 -15 0 -11 5
3 5 -4 9 -15 9 -34 0 -395 69 -416 80 l-20 10 20 -5 c11 -2 168 -31 350 -65z
m979 -29 c0 -104 -22 -161 -61 -161 -12 0 -25 4 -28 10 -4 6 1 7 11 3 12 -4
15 -3 10 5 -4 7 -14 12 -22 12 -16 0 -18 9 -5 29 5 7 14 11 20 7 7 -4 9 -1 5
8 -3 8 -12 17 -20 20 -10 4 -14 23 -14 66 l0 60 44 0 c30 0 46 5 50 15 3 8 7
15 8 15 2 0 3 -40 2 -89z m-2244 -102 c-34 -26 -85 -39 -145 -38 l-50 1 65 10
c35 5 83 19 105 32 46 26 61 24 25 -5z m-4248 -99 c-8 -45 -12 -83 -10 -85 3
-3 19 -2 36 1 27 5 31 11 37 48 3 22 9 55 12 73 4 29 2 32 -24 36 -15 2 294 4
687 3 393 0 595 -2 448 -3 -243 -3 -267 -5 -272 -21 -3 -9 -12 -71 -21 -137
-9 -66 -22 -125 -28 -131 -7 -7 -66 -19 -132 -28 -192 -26 -199 -33 -31 -35
82 -1 154 -5 160 -10 6 -5 200 -12 431 -15 231 -4 483 -8 560 -11 77 -3 291
-7 475 -10 184 -3 351 -8 371 -11 32 -5 236 17 319 35 30 6 41 2 78 -26 42
-32 47 -33 137 -33 51 0 102 -3 112 -6 10 -3 -6 17 -35 45 -49 47 -51 51 -30
56 13 3 137 23 276 45 l253 41 112 -97 c61 -52 122 -104 133 -114 19 -15 62
-20 300 -35 154 -9 290 -18 304 -20 14 -2 49 -4 77 -4 48 -1 54 -4 69 -32 l16
-31 -139 6 c-495 24 -1007 35 -1079 24 -66 -10 -78 -10 -104 5 -22 13 -52 17
-137 17 l-108 -1 33 -28 34 -29 -29 -6 c-37 -7 -193 -32 -658 -106 -606 -97
-1360 -219 -1485 -240 -148 -26 -212 -28 -335 -12 -141 19 -266 4 -392 -49
-51 -21 -52 -21 -160 -3 -87 14 -193 19 -546 23 l-438 6 268 43 c147 24 405
66 573 93 168 26 337 55 375 63 39 9 95 18 125 22 69 8 631 98 1295 207 l200
33 -300 7 c-165 4 -597 10 -960 13 l-660 6 -220 -35 c-121 -20 -254 -40 -295
-46 -41 -6 -85 -14 -98 -17 -22 -6 -22 -5 -16 50 l7 56 -302 0 -301 0 0 73 0
72 298 -5 c163 -3 302 -9 309 -13 14 -9 21 24 67 328 2 17 5 31 5 33 1 1 83 2
184 2 l184 0 -15 -80z m2168 -43 c-10 -9 -11 -9 -6 1 4 7 2 12 -6 12 -9 0 -9
3 2 10 19 12 27 -7 10 -23z m215 -19 c6 -4 2 -8 -7 -8 -10 0 -18 7 -18 17 0 9
3 12 8 7 4 -5 12 -12 17 -16z m1749 -83 c15 -11 49 -15 130 -15 l111 -1 92
-76 c51 -42 91 -78 89 -80 -2 -2 -67 -14 -146 -27 l-142 -23 -131 111 c-120
101 -129 111 -106 117 41 12 83 9 103 -6z m3908 -181 c10 -20 9 -27 -2 -34
-20 -12 -27 -5 -32 30 -6 38 17 41 34 4z m-8880 -156 c-19 -20 -19 -20 -41 4
l-22 23 38 5 c45 6 53 -4 25 -32z m6138 -18 c118 -12 224 -26 235 -30 14 -7 9
-8 -20 -5 -22 2 -137 7 -255 10 -118 3 -263 8 -322 12 -104 6 -107 7 -116 32
l-9 26 136 -12 c75 -7 233 -22 351 -33z m307 -36 c-3 -3 -12 -4 -19 -1 -8 3
-5 6 6 6 11 1 17 -2 13 -5z m1597 -110 c44 -8 93 -22 110 -30 34 -16 39 -16
-89 12 -89 19 -285 31 -285 17 0 -6 28 -11 68 -12 115 -2 172 -15 172 -39 0
-8 3 -13 6 -9 10 10 42 -36 36 -52 -4 -10 -1 -13 11 -8 9 3 17 2 17 -4 0 -5
29 -23 64 -39 60 -27 70 -28 142 -21 74 7 80 6 147 -26 39 -19 76 -32 83 -29
7 3 17 -1 23 -8 9 -10 0 -17 -41 -29 -29 -9 -74 -19 -99 -22 -43 -6 -50 -4
-100 34 -70 54 -178 106 -259 125 -85 20 -260 20 -358 0 -107 -22 -221 -68
-299 -120 -68 -45 -83 -52 -83 -33 0 5 5 7 10 4 10 -6 19 9 24 37 1 7 5 18 8
24 4 6 -2 18 -13 27 -10 9 -19 12 -19 7 0 -6 -5 -10 -11 -10 -5 0 -7 5 -3 12
8 12 -76 -43 -116 -76 l-25 -21 20 24 c40 48 191 161 260 195 177 86 387 110
599 70z m399 -183 c7 -8 -7 -2 -30 14 -24 15 -43 30 -43 32 0 7 61 -31 73 -46z
m541 27 c-5 -13 -8 -48 -8 -78 l-1 -55 -45 -3 c-37 -2 -47 1 -58 18 -12 19 -8
26 45 80 63 63 79 72 67 38z m-6789 -137 c7 -13 -49 -23 -105 -19 l-45 3 65
11 c36 6 68 12 72 13 4 0 9 -3 13 -8z m6301 -31 c-3 -11 -9 -29 -12 -40 -10
-35 -25 -22 -22 20 1 32 6 40 21 40 14 0 17 -5 13 -20z m-6814 -200 c202 -62
324 -272 274 -469 -22 -86 -61 -155 -116 -203 -241 -215 -615 -86 -670 233 -9
52 -8 78 4 138 49 235 279 372 508 301z m6330 -28 c238 -117 296 -436 114
-630 -193 -206 -528 -158 -652 93 -76 154 -49 331 69 453 88 91 170 123 308
119 84 -2 103 -6 161 -35z m1058 -19 c-1 -24 -2 -26 -11 -10 -5 9 -7 22 -4 27
10 17 15 11 15 -17z m-4 -50 c-7 -7 -26 7 -26 19 0 6 6 6 15 -2 9 -7 13 -15
11 -17z m74 3 c0 -7 -9 -16 -21 -19 -20 -5 -20 -5 -3 14 20 23 24 23 24 5z
m-6800 -415 c0 -18 -6 -19 -82 -14 -91 6 -93 7 -83 22 3 6 40 11 86 11 71 0
79 -2 79 -19z m4788 -8 c-10 -2 -26 -2 -35 0 -10 3 -2 5 17 5 19 0 27 -2 18
-5z"/>
<path d="M5453 7653 c-18 -4 -23 -15 -33 -74 -7 -39 -10 -72 -9 -73 2 -2 21
-6 42 -9 36 -6 37 -5 37 26 0 18 3 56 6 85 7 55 7 55 -43 45z"/>
<path d="M5343 7079 c-9 -68 -9 -70 11 -65 12 3 26 6 33 6 6 0 15 21 18 48 4
26 9 55 12 65 3 14 -2 17 -30 17 l-34 0 -10 -71z"/>
<path d="M5408 6743 c7 -3 16 -2 19 1 4 3 -2 6 -13 5 -11 0 -14 -3 -6 -6z"/>
<path d="M5163 6703 c9 -2 23 -2 30 0 6 3 -1 5 -18 5 -16 0 -22 -2 -12 -5z"/>
<path d="M5098 6693 c6 -2 18 -2 25 0 6 3 1 5 -13 5 -14 0 -19 -2 -12 -5z"/>
<path d="M4964 6671 c3 -5 15 -7 26 -4 28 7 25 13 -6 13 -14 0 -23 -4 -20 -9z"/>
<path d="M3005 6718 c-3 -7 -13 -71 -24 -142 -14 -93 -25 -137 -41 -157 -17
-24 -18 -29 -5 -29 8 0 15 -4 15 -9 0 -5 25 -11 55 -13 54 -3 55 -3 60 27 11
61 45 307 45 321 0 18 -98 20 -105 2z"/>
<path d="M9438 6003 c12 -2 30 -2 40 0 9 3 -1 5 -23 4 -22 0 -30 -2 -17 -4z"/>
<path d="M3160 5440 c-8 -5 -10 -10 -5 -10 6 0 17 5 25 10 8 5 11 10 5 10 -5
0 -17 -5 -25 -10z"/>
<path d="M3277 5413 c-14 -13 -6 -33 13 -33 13 0 20 7 20 20 0 19 -20 27 -33
13z"/>
<path d="M3069 5389 c-23 -19 -23 -20 -2 -10 12 6 25 16 28 21 10 16 -1 12
-26 -11z"/>
<path d="M3177 5404 c-15 -15 -7 -45 11 -42 9 2 17 12 17 22 0 20 -16 31 -28
20z"/>
<path d="M3370 5380 c0 -13 7 -20 20 -20 13 0 20 7 20 20 0 13 -7 20 -20 20
-13 0 -20 -7 -20 -20z"/>
<path d="M3490 5396 c0 -2 8 -10 18 -17 15 -13 16 -12 3 4 -13 16 -21 21 -21
13z"/>
<path d="M3084 5345 c-7 -18 3 -35 21 -35 15 0 28 27 19 41 -8 14 -34 11 -40
-6z"/>
<path d="M3454 5339 c-9 -15 12 -33 30 -26 9 4 16 13 16 22 0 17 -35 21 -46 4z"/>
<path d="M2990 5305 c-7 -9 -11 -17 -9 -20 3 -2 10 5 17 15 14 24 10 26 -8 5z"/>
<path d="M3202 5285 c-174 -89 -123 -347 72 -363 75 -6 138 24 178 87 26 41
29 53 26 113 -3 57 -8 73 -34 105 -41 50 -81 72 -141 79 -39 4 -58 1 -101 -21z
m22 -40 c3 -8 1 -15 -3 -15 -5 0 -11 7 -15 15 -3 8 -1 15 3 15 5 0 11 -7 15
-15z m154 3 c-2 -6 -10 -14 -16 -16 -7 -2 -10 2 -6 12 7 18 28 22 22 4z m-53
-98 c3 -6 -1 -7 -9 -4 -18 7 -21 14 -7 14 6 0 13 -4 16 -10z m-172 -37 c-7 -2
-19 -2 -25 0 -7 3 -2 5 12 5 14 0 19 -2 13 -5z m302 -3 c-3 -5 -12 -7 -20 -3
-21 7 -19 13 6 13 11 0 18 -4 14 -10z m-135 -70 c0 -16 -57 -16 -74 1 -6 5 6
9 32 9 23 0 42 -4 42 -10z m-96 -54 c-3 -9 -10 -16 -15 -16 -6 0 -5 9 1 21 13
24 24 20 14 -5z m150 -1 c3 -8 1 -15 -3 -15 -5 0 -11 7 -15 15 -3 8 -1 15 3
15 5 0 11 -7 15 -15z"/>
<path d="M3031 5281 c-17 -11 -10 -46 9 -46 17 0 26 33 13 46 -4 4 -14 4 -22
0z"/>
<path d="M3521 5266 c-9 -10 -8 -16 4 -26 19 -16 41 1 32 24 -8 20 -21 20 -36
2z"/>
<path d="M2992 5168 c2 -12 10 -23 18 -23 22 0 19 39 -3 43 -15 3 -18 -1 -15
-20z"/>
<path d="M3557 5184 c-16 -16 -7 -44 14 -44 15 0 20 5 17 22 -3 22 -19 33 -31
22z"/>
<path d="M2986 5074 c-9 -23 19 -53 35 -37 15 15 7 47 -12 51 -9 2 -19 -5 -23
-14z"/>
<path d="M3552 5058 c2 -13 10 -23 18 -23 8 0 16 10 18 23 3 17 -2 22 -18 22
-16 0 -21 -5 -18 -22z"/>
<path d="M3631 5054 c0 -11 3 -14 6 -6 3 7 2 16 -1 19 -3 4 -6 -2 -5 -13z"/>
<path d="M3010 4984 c0 -3 5 -14 10 -25 13 -23 7 -25 -14 -3 -15 14 -16 14
-16 -3 0 -15 -2 -16 -10 -3 -5 8 -10 10 -10 4 0 -36 138 -164 177 -164 4 0
-11 12 -34 26 -49 28 -58 42 -14 20 16 -9 31 -12 35 -9 3 4 6 1 6 -5 0 -6 7
-9 17 -5 12 5 14 3 8 -7 -6 -10 -4 -12 8 -7 10 4 17 2 17 -4 0 -6 7 -9 15 -5
8 3 15 1 15 -5 0 -12 111 -11 165 3 21 5 45 17 53 26 7 10 11 12 8 6 -4 -9 5
-9 35 -2 31 8 49 23 83 67 24 31 46 67 51 81 4 16 -4 8 -23 -20 -16 -25 -49
-61 -73 -80 l-44 -35 38 43 c40 45 50 67 17 37 -16 -14 -22 -15 -35 -5 -23 19
-48 4 -43 -24 4 -18 0 -26 -14 -29 -10 -3 -21 -1 -24 5 -4 6 -26 7 -58 2 -111
-17 -194 5 -250 64 -15 17 -34 28 -42 25 -7 -2 -19 5 -26 16 -12 20 -28 28
-28 15z m1 -66 c11 -21 11 -22 -4 -9 -10 7 -17 17 -17 22 0 15 9 10 21 -13z"/>
<path d="M3513 4974 c-3 -8 -1 -20 5 -26 16 -16 42 -2 42 22 0 24 -38 28 -47
4z"/>
<path d="M3120 4946 c26 -29 78 -61 87 -53 2 3 -5 8 -17 12 -12 4 -38 21 -58
38 -35 29 -35 30 -12 3z"/>
<path d="M9538 5453 c7 -3 16 -2 19 1 4 3 -2 6 -13 5 -11 0 -14 -3 -6 -6z"/>
<path d="M9534 5406 c-7 -19 3 -36 22 -36 10 0 14 8 12 22 -4 26 -26 36 -34
14z"/>
<path d="M9427 5386 c-8 -20 20 -43 35 -28 14 14 3 42 -16 42 -7 0 -16 -6 -19
-14z"/>
<path d="M9634 5386 c-7 -19 3 -36 22 -36 10 0 14 8 12 22 -4 26 -26 36 -34
14z"/>
<path d="M9340 5331 c0 -24 13 -33 35 -25 23 9 14 38 -13 42 -16 3 -22 -2 -22
-17z"/>
<path d="M9714 5339 c-10 -17 23 -46 38 -31 8 8 8 15 -2 27 -15 18 -26 19 -36
4z"/>
<path d="M9409 5309 l-24 -20 28 17 c15 9 27 18 27 20 0 8 -8 4 -31 -17z"/>
<path d="M9463 5281 c-114 -52 -146 -210 -62 -305 29 -33 100 -66 143 -66 67
0 151 51 180 109 65 129 -27 281 -171 281 -26 0 -67 -9 -90 -19z m17 -47 c0
-8 -4 -12 -10 -9 -5 3 -10 13 -10 21 0 8 5 12 10 9 6 -3 10 -13 10 -21z m150
1 c-7 -9 -15 -13 -17 -11 -7 7 7 26 19 26 6 0 6 -6 -2 -15z m-220 -125 c0 -5
-7 -10 -15 -10 -8 0 -15 5 -15 10 0 6 7 10 15 10 8 0 15 -4 15 -10z m293 -7
c-7 -2 -19 -2 -25 0 -7 3 -2 5 12 5 14 0 19 -2 13 -5z m-118 -72 c-8 -13 -52
-14 -60 -2 -3 5 9 11 27 13 39 4 42 3 33 -11z m-112 -56 c-3 -9 -8 -14 -10
-11 -3 3 -2 9 2 15 9 16 15 13 8 -4z m157 -6 c0 -6 -4 -7 -10 -4 -5 3 -10 11
-10 16 0 6 5 7 10 4 6 -3 10 -11 10 -16z"/>
<path d="M9846 5287 c3 -10 9 -15 12 -12 3 3 0 11 -7 18 -10 9 -11 8 -5 -6z"/>
<path d="M9409 5273 c-13 -16 -12 -17 4 -4 9 7 17 15 17 17 0 8 -8 3 -21 -13z"/>
<path d="M9283 5269 c-15 -15 -5 -39 17 -39 22 0 32 24 17 39 -6 6 -14 11 -17
11 -3 0 -11 -5 -17 -11z"/>
<path d="M9780 5251 c0 -15 6 -21 21 -21 14 0 19 5 17 17 -5 26 -38 29 -38 4z"/>
<path d="M9881 5200 c0 -8 4 -24 9 -35 l9 -20 0 20 c0 11 -4 27 -9 35 -9 13
-10 13 -9 0z"/>
<path d="M9253 5183 c-16 -6 -17 -25 -2 -40 15 -15 39 -5 39 17 0 19 -17 30
-37 23z"/>
<path d="M9813 5164 c-8 -21 13 -42 28 -27 13 13 5 43 -11 43 -6 0 -13 -7 -17
-16z"/>
<path d="M9885 5055 c-9 -47 -37 -107 -71 -151 -13 -17 -20 -35 -16 -39 4 -3
2 -5 -3 -4 -16 5 -56 -21 -50 -31 4 -6 -1 -7 -11 -3 -10 4 -15 2 -11 -3 3 -5
-4 -10 -15 -10 -20 0 -20 1 -2 11 27 14 96 86 90 92 -3 3 -11 1 -19 -5 -7 -6
-23 -9 -34 -6 -15 4 -25 0 -32 -14 -6 -11 -7 -22 -4 -26 3 -3 0 -6 -8 -7 -8 0
-27 -2 -44 -5 -88 -12 -185 -14 -185 -3 0 8 -12 10 -33 6 -35 -5 -59 3 -56 19
4 23 -3 34 -20 34 -11 0 -23 -5 -26 -11 -5 -7 -13 -5 -25 6 -31 28 -31 -1 0
-31 16 -16 30 -34 30 -41 0 -19 79 -60 138 -72 65 -13 65 -13 57 -1 -6 9 53
16 113 12 14 0 20 3 16 10 -5 8 -1 9 12 5 18 -7 18 -6 1 7 -16 12 -15 13 15
11 45 -4 77 15 130 74 47 52 84 145 76 191 -4 21 -6 18 -13 -15z"/>
<path d="M9244 5065 c-4 -9 -2 -21 4 -27 15 -15 44 -1 40 19 -4 23 -36 29 -44
8z"/>
<path d="M9816 5071 c-9 -14 5 -42 18 -38 15 5 14 39 -1 44 -6 2 -14 0 -17 -6z"/>
<path d="M9274 4975 c-3 -8 -3 -19 1 -25 8 -13 45 -13 45 0 0 6 -7 10 -16 10
-14 0 -14 3 -4 15 10 12 9 15 -4 15 -9 0 -19 -7 -22 -15z"/>
<path d="M9716 4949 c-39 -43 -100 -68 -171 -70 -51 -1 -55 -2 -28 -9 71 -16
181 27 221 88 21 31 10 27 -22 -9z"/>
<path d="M9785 4959 c-4 -11 -4 -23 -1 -26 8 -9 36 17 36 33 0 22 -28 16 -35
-7z"/>
<path d="M9814 6849 c-3 -6 -2 -15 3 -20 16 -16 215 -80 230 -75 35 14 7 35
-90 70 -110 38 -132 42 -143 25z"/>
<path d="M10458 6515 c84 -41 202 -104 263 -141 60 -37 112 -64 115 -62 10 10
-8 34 -43 58 -20 14 -41 24 -45 22 -4 -1 -8 3 -8 9 0 5 -21 19 -47 30 -27 11
-65 29 -86 41 -21 11 -49 21 -62 22 -13 2 -31 10 -40 20 -9 9 -21 17 -26 17
-14 2 -22 5 -54 18 -41 18 -106 41 -113 41 -4 0 62 -34 146 -75z"/>
<path d="M10837 6269 c7 -7 15 -10 18 -7 3 3 -2 9 -12 12 -14 6 -15 5 -6 -5z"/>
<path d="M10835 6205 c2 -16 6 -48 9 -70 10 -74 47 -300 52 -325 l6 -25 10 25
c9 23 7 47 -8 124 -5 20 -3 26 6 21 7 -4 4 7 -5 25 -11 21 -15 45 -12 67 4 20
2 31 -4 28 -8 -6 -13 43 -10 100 l1 20 -9 -20 c-8 -19 -9 -19 -18 5 -20 51
-23 54 -18 25z"/>
<path d="M10675 6170 c27 -12 43 -12 25 0 -8 5 -22 9 -30 9 -10 0 -8 -3 5 -9z"/>
<path d="M10687 5990 c5 -20 43 -49 43 -33 -1 9 -36 53 -43 53 -3 0 -3 -9 0
-20z"/>
</g>
</svg>
